HIERARCHY
ROOT Hips
{
  OFFSET 363.916 89.4436 202.859
  CHANNELS 6 Xposition Yposition Zposition Zrotation Xrotation Yrotation
  JOINT RightUpLeg
  {
    OFFSET -9.22681 -1.41939 0.059526
    CHANNELS 3 Zrotation Xrotation Yrotation
    JOINT RightLeg
    {
      OFFSET 0.076897 -41.8891 0.179098
      CHANNELS 3 Zrotation Xrotation Yrotation
      JOINT RightFoot
      {
        OFFSET -0.0130714 -43.0092 0.527065
        CHANNELS 3 Zrotation Xrotation Yrotation
        End Site
        {
          OFFSET 0 -7.69 17.5
        }
      }
    }
  }
  JOINT LeftUpLeg
  {
    OFFSET 9.19333 -1.7604 -0.077889
    CHANNELS 3 Zrotation Xrotation Yrotation
    JOINT LeftLeg
    {
      OFFSET -0.0291634 -41.859 -0.15197
      CHANNELS 3 Zrotation Xrotation Yrotation
      JOINT LeftFoot
      {
        OFFSET 0.141288 -40.5593 0.458407
        CHANNELS 3 Zrotation Xrotation Yrotation
        End Site
        {
          OFFSET 0 -7.69 17.5
        }
      }
    }
  }
  JOINT Spine
  {
    OFFSET 0.215607 14.2961 0.04713
    CHANNELS 3 Zrotation Xrotation Yrotation
    JOINT Spine1
    {
      OFFSET 0.127345 9.70675 0.00151561
      CHANNELS 3 Zrotation Xrotation Yrotation
      JOINT Spine2
      {
        OFFSET 0.0493166 10.1169 -0.00299987
        CHANNELS 3 Zrotation Xrotation Yrotation
        JOINT Spine3
        {
          OFFSET 0.0599611 9.70888 0.0197622
          CHANNELS 3 Zrotation Xrotation Yrotation
          JOINT Neck
          {
            OFFSET 0.305156 10.372 0.0704915
            CHANNELS 3 Zrotation Xrotation Yrotation
            JOINT Head
            {
              OFFSET 0.288394 9.47974 0.0406202
              CHANNELS 3 Zrotation Xrotation Yrotation
              End Site
              {
                OFFSET 0 15.95 0
              }
            }
          }
          JOINT RightShoulder
          {
            OFFSET -3.14873 6.92098 0.0285763
            CHANNELS 3 Zrotation Xrotation Yrotation
            JOINT RightArm
            {
              OFFSET -12.7049 -0.00288304 0.0369593
              CHANNELS 3 Zrotation Xrotation Yrotation
              JOINT RightForeArm
              {
                OFFSET -26.4954 -0.160471 0.0134548
                CHANNELS 3 Zrotation Xrotation Yrotation
                JOINT RightHand
                {
                  OFFSET -26.0026 -0.0211725 -0.0218708
                  CHANNELS 3 Zrotation Xrotation Yrotation
                  JOINT RightHandThumb1
                  {
                    OFFSET -2.48905 0.190105 3.12053
                    CHANNELS 3 Zrotation Xrotation Yrotation
                    JOINT RightHandThumb2
                    {
                      OFFSET -3.68274 0 0
                      CHANNELS 3 Zrotation Xrotation Yrotation
                      JOINT RightHandThumb3
                      {
                        OFFSET -2.55832 0 0
                        CHANNELS 3 Zrotation Xrotation Yrotation
                        End Site
                        {
                          OFFSET -2.194 0 0
                        }
                      }
                    }
                  }
                  JOINT RightInHandIndex
                  {
                    OFFSET -3.22368 0.508421 1.97842
                    CHANNELS 3 Zrotation Xrotation Yrotation
                    JOINT RightHandIndex1
                    {
                      OFFSET -5.21684 -0.091368 0.999158
                      CHANNELS 3 Zrotation Xrotation Yrotation
                      JOINT RightHandIndex2
                      {
                        OFFSET -3.61937 0 0
                        CHANNELS 3 Zrotation Xrotation Yrotation
                        JOINT RightHandIndex3
                        {
                          OFFSET -2.0521 0 0
                          CHANNELS 3 Zrotation Xrotation Yrotation
                          End Site
                          {
                            OFFSET -1.805 0 0
                          }
                        }
                      }
                    }
                  }
                  JOINT RightInHandMiddle
                  {
                    OFFSET -3.38211 0.517263 0.756737
                    CHANNELS 3 Zrotation Xrotation Yrotation
                    JOINT RightHandMiddle1
                    {
                      OFFSET -5.17411 -0.084 0.313895
                      CHANNELS 3 Zrotation Xrotation Yrotation
                      JOINT RightHandMiddle2
                      {
                        OFFSET -3.94947 0 0
                        CHANNELS 3 Zrotation Xrotation Yrotation
                        JOINT RightHandMiddle3
                        {
                          OFFSET -2.47579 0 0
                          CHANNELS 3 Zrotation Xrotation Yrotation
                          End Site
                          {
                            OFFSET -1.975 0 0
                          }
                        }
                      }
                    }
                  }
                  JOINT RightInHandRing
                  {
                    OFFSET -3.36516 0.537895 -0.128947
                    CHANNELS 3 Zrotation Xrotation Yrotation
                    JOINT RightHandRing1
                    {
                      OFFSET -4.63474 -0.022105 -0.478947
                      CHANNELS 3 Zrotation Xrotation Yrotation
                      JOINT RightHandRing2
                      {
                        OFFSET -3.44238 0 0
                        CHANNELS 3 Zrotation Xrotation Yrotation
                        JOINT RightHandRing3
                        {
                          OFFSET -2.3881 0 0
                          CHANNELS 3 Zrotation Xrotation Yrotation
                          End Site
                          {
                            OFFSET -1.857 0 0
                          }
                        }
                      }
                    }
                  }
                  JOINT RightInHandPinky
                  {
                    OFFSET -3.16105 0.469368 -1.20179
                    CHANNELS 3 Zrotation Xrotation Yrotation
                    JOINT RightHandPinky1
                    {
                      OFFSET -4.14105 -0.022105 -1.09053
                      CHANNELS 3 Zrotation Xrotation Yrotation
                      JOINT RightHandPinky2
                      {
                        OFFSET -2.75653 0 0
                        CHANNELS 3 Zrotation Xrotation Yrotation
                        JOINT RightHandPinky3
                        {
                          OFFSET -1.74189 0 0
                          CHANNELS 3 Zrotation Xrotation Yrotation
                          End Site
                          {
                            OFFSET -1.645 0 0
                          }
                        }
                      }
                    }
                  }
                }
              }
            }
          }
          JOINT LeftShoulder
          {
            OFFSET 3.26342 6.92519 -0.0174379
            CHANNELS 3 Zrotation Xrotation Yrotation
            JOINT LeftArm
            {
              OFFSET 12.8742 -0.0269705 -0.0666419
              CHANNELS 3 Zrotation Xrotation Yrotation
              JOINT LeftForeArm
              {
                OFFSET 26.5114 0.000826062 -0.052783
                CHANNELS 3 Zrotation Xrotation Yrotation
                JOINT LeftHand
                {
                  OFFSET 25.9941 -0.0689373 0.00603348
                  CHANNELS 3 Zrotation Xrotation Yrotation
                  JOINT LeftHandThumb1
                  {
                    OFFSET 2.48905 0.190105 3.12053
                    CHANNELS 3 Zrotation Xrotation Yrotation
                    JOINT LeftHandThumb2
                    {
                      OFFSET 3.68274 0 0
                      CHANNELS 3 Zrotation Xrotation Yrotation
                      JOINT LeftHandThumb3
                      {
                        OFFSET 2.55832 0 0
                        CHANNELS 3 Zrotation Xrotation Yrotation
                        End Site
                        {
                          OFFSET 2.194 0 0
                        }
                      }
                    }
                  }
                  JOINT LeftInHandIndex
                  {
                    OFFSET 3.22368 0.508421 1.97842
                    CHANNELS 3 Zrotation Xrotation Yrotation
                    JOINT LeftHandIndex1
                    {
                      OFFSET 5.21684 -0.091368 0.999158
                      CHANNELS 3 Zrotation Xrotation Yrotation
                      JOINT LeftHandIndex2
                      {
                        OFFSET 3.61937 0 0
                        CHANNELS 3 Zrotation Xrotation Yrotation
                        JOINT LeftHandIndex3
                        {
                          OFFSET 2.0521 0 0
                          CHANNELS 3 Zrotation Xrotation Yrotation
                          End Site
                          {
                            OFFSET 1.805 0 0
                          }
                        }
                      }
                    }
                  }
                  JOINT LeftInHandMiddle
                  {
                    OFFSET 3.38211 0.517263 0.756737
                    CHANNELS 3 Zrotation Xrotation Yrotation
                    JOINT LeftHandMiddle1
                    {
                      OFFSET 5.17411 -0.084 0.313895
                      CHANNELS 3 Zrotation Xrotation Yrotation
                      JOINT LeftHandMiddle2
                      {
                        OFFSET 3.94947 0 0
                        CHANNELS 3 Zrotation Xrotation Yrotation
                        JOINT LeftHandMiddle3
                        {
                          OFFSET 2.47579 0 0
                          CHANNELS 3 Zrotation Xrotation Yrotation
                          End Site
                          {
                            OFFSET 1.975 0 0
                          }
                        }
                      }
                    }
                  }
                  JOINT LeftInHandRing
                  {
                    OFFSET 3.36516 0.537895 -0.128947
                    CHANNELS 3 Zrotation Xrotation Yrotation
                    JOINT LeftHandRing1
                    {
                      OFFSET 4.63474 -0.022105 -0.478947
                      CHANNELS 3 Zrotation Xrotation Yrotation
                      JOINT LeftHandRing2
                      {
                        OFFSET 3.44238 0 0
                        CHANNELS 3 Zrotation Xrotation Yrotation
                        JOINT LeftHandRing3
                        {
                          OFFSET 2.3881 0 0
                          CHANNELS 3 Zrotation Xrotation Yrotation
                          End Site
                          {
                            OFFSET 1.857 0 0
                          }
                        }
                      }
                    }
                  }
                  JOINT LeftInHandPinky
                  {
                    OFFSET 3.16105 0.469368 -1.20179
                    CHANNELS 3 Zrotation Xrotation Yrotation
                    JOINT LeftHandPinky1
                    {
                      OFFSET 4.14105 -0.022105 -1.09053
                      CHANNELS 3 Zrotation Xrotation Yrotation
                      JOINT LeftHandPinky2
                      {
                        OFFSET 2.75653 0 0
                        CHANNELS 3 Zrotation Xrotation Yrotation
                        JOINT LeftHandPinky3
                        {
                          OFFSET 1.74189 0 0
                          CHANNELS 3 Zrotation Xrotation Yrotation
                          End Site
                          {
                            OFFSET 1.645 0 0
                          }
                        }
                      }
                    }
                  }
                }
              }
            }
          }
        }
      }
    }
  }
}
MOTION
Frames: 3
Frame Time: 0.00833333
1.499546628079149855e+02 -6.455732904139692473e-05 -1.793723186964255312e-01 4.306069093491499133e-02 1.723716926061749088e-01 4.270968015491626857e-01 -7.550598860065145523e-02 -1.091136868429175011e-01 -1.398977464255956593e-01 -3.325228273874838991e-02 2.531655220085047842e-01 -1.487543773226588928e-01 5.337641911526626488e-03 -1.894546479568037511e-01 -1.725977774935577302e-01 2.570702814555965790e-02 -1.899193754376365673e-01 -6.635265362361274233e-02 1.636919731006119538e-01 -6.902417599952347105e-02 -2.434867888113155243e-01 -1.538074915425837186e-01 1.117208730156550589e-01 -2.038636756866772370e-01 -8.736648693771244256e-02 1.844367302369668074e-02 1.089978111336807748e-01 -1.863382827204500616e-02 1.035965623136138325e-02 2.377319706119013915e-02 -3.073748994205204033e-02 1.762003197159138501e-02 3.755746981373012799e-02 9.678320207675610021e-03 1.099462062772677950e-03 -9.706245471186890350e-03 9.988036397295884175e-03 1.271847763875640037e-03 -1.082299528223094887e-02 1.649520121881937473e-01 -3.325988580730562111e-02 -1.708188973156255230e-01 -1.635126931077019591e-02 -8.596687263289816416e-02 6.371263056874786057e-02 -2.046719031773912845e-01 1.257049765057555724e-01 3.126992421260432753e-01 -8.243365008087230050e-01 3.080434081810038416e-01 -9.213724512363005159e-01 1.135814400972543353e-01 -2.582115708566758427e-01 8.854216531211153707e-02 0.000000000000000000e+00 0.000000000000000000e+00 0.000000000000000000e+00 -8.934623975591701781e-15 4.204458411735672253e-15 0.000000000000000000e+00 -5.174262943279234882e-15 -1.783630461082370331e-16 0.000000000000000000e+00 -3.566047220669129315e-15 3.855291127612105586e-15 8.265036142861535937e-15 0.000000000000000000e+00 0.000000000000000000e+00 0.000000000000000000e+00 0.000000000000000000e+00 3.833657456083083661e-15 2.213710695384503690e-14 0.000000000000000000e+00 -1.129156304532779784e-13 -6.473970122732705616e-13 -3.566047220669129315e-15 3.855291127612105586e-15 8.265036142861535937e-15 0.000000000000000000e+00 1.108933307124739589e-14 1.668253170173419377e-14 0.000000000000000000e+00 5.461805863221489673e-15 2.981333936592401045e-14 0.000000000000000000e+00 1.663388956820858787e-14 1.091222241058855272e-13 -3.566047220669129315e-15 3.855291127612105586e-15 8.265036142861535937e-15 0.000000000000000000e+00 0.000000000000000000e+00 0.000000000000000000e+00 0.000000000000000000e+00 -7.127186589133805065e-16 1.629157586638382169e-14 0.000000000000000000e+00 2.385266370492663581e-14 1.419639602236980587e-13 -3.566047220669129315e-15 3.855291127612105586e-15 8.265036142861535937e-15 0.000000000000000000e+00 0.000000000000000000e+00 0.000000000000000000e+00 0.000000000000000000e+00 1.187895164569681107e-14 1.341528823957940208e-14 0.000000000000000000e+00 2.409122549705834480e-15 4.175770516897779241e-14 -2.357308024262714380e-02 -1.848701229001705609e-02 1.023678555675116841e-01 8.407099556570436782e-02 -8.451702554111945043e-02 -1.833658612036781210e-01 2.550064992849172540e-01 -5.626040559725519197e-01 3.161645355405264812e-01 6.875736937398958804e-02 1.010563807408779047e+00 1.307405457148143879e-01 0.000000000000000000e+00 0.000000000000000000e+00 0.000000000000000000e+00 6.354781585990039370e-15 -2.491125182422447077e-15 0.000000000000000000e+00 -7.677486073813167405e-15 -2.986805266435792893e-15 0.000000000000000000e+00 4.170932660760954584e-15 1.715185101146277477e-15 1.289004987826580211e-16 0.000000000000000000e+00 0.000000000000000000e+00 0.000000000000000000e+00 0.000000000000000000e+00 -3.323231094990813286e-15 -3.165692288305676614e-15 0.000000000000000000e+00 -4.471539733605299570e-16 -9.579473890860371468e-15 4.170932660760954584e-15 1.715185101146277477e-15 1.289004987826580211e-16 0.000000000000000000e+00 -2.393144972989726392e-15 3.714666694733637639e-16 0.000000000000000000e+00 -5.234654437114113267e-15 -3.913252473522651060e-15 0.000000000000000000e+00 2.910631947906538846e-15 -2.895491659417146706e-15 4.170932660760954584e-15 1.715185101146277477e-15 1.289004987826580211e-16 0.000000000000000000e+00 0.000000000000000000e+00 0.000000000000000000e+00 0.000000000000000000e+00 1.063018769382103485e-15 -2.195545795912650850e-15 0.000000000000000000e+00 4.923122413836231938e-15 -1.322791149270460463e-14 4.170932660760954584e-15 1.715185101146277477e-15 1.289004987826580211e-16 0.000000000000000000e+00 0.000000000000000000e+00 0.000000000000000000e+00 0.000000000000000000e+00 -1.866239320901277779e-15 -3.295344582229550066e-15 0.000000000000000000e+00 5.137308536581749062e-15 -7.181123749288973180e-15
1.499967741181213512e+02 -2.819694003608206375e-04 -1.394039133159390327e-02 1.155132553596765338e-02 4.220605000122339134e-02 1.027804387603259151e-01 -1.028463714097794732e-02 -3.306937583755899246e-02 -1.259951692173827409e-02 -1.797038273773593486e-02 3.600875501125411215e-02 -8.951683479995446724e-02 4.969011025374506490e-04 -7.640788667002220737e-03 -6.958318314299870647e-03 1.443630603806416411e-02 -4.844947623174369888e-02 7.518590714380924550e-03 3.047738825747882060e-02 5.818938433808658328e-03 -1.065245772002283153e-01 -1.400060556591311428e-02 4.739968317942259111e-03 -1.541569077566493431e-02 2.867359072511995940e-02 -2.697655348356477970e-03 -4.129686419889513210e-02 6.049075178157489741e-03 -1.033119763458663354e-03 -9.099459044683308115e-03 9.804345339596287623e-03 -9.497770452516462450e-04 -1.430558713014257015e-02 -1.525973100536495274e-03 1.142121890382142863e-03 2.415248229706368557e-03 -1.517975645221172247e-03 1.206481968083218973e-03 2.353407304592410824e-03 -2.547975322014880278e-02 1.387013274569297294e-02 4.261388063598609000e-02 -5.034199189804004597e-03 -6.347891673723848882e-03 6.708437807244133771e-03 -1.137591874286511887e-02 1.179436409737181710e-02 1.780288875167557877e-02 -6.346312218081082146e-02 2.332273935313855517e-02 -5.289491158887701244e-02 2.057849281046912338e-01 -3.352992602844743208e-01 3.630453427393242616e-01 0.000000000000000000e+00 0.000000000000000000e+00 0.000000000000000000e+00 -1.286479498667576660e-14 6.042844663593195301e-15 0.000000000000000000e+00 -4.167801183482629386e-15 6.229167784218900512e-15 0.000000000000000000e+00 2.879851295642174005e-15 -2.589053619077908252e-16 3.576681398516559015e-15 0.000000000000000000e+00 0.000000000000000000e+00 0.000000000000000000e+00 0.000000000000000000e+00 3.641743744117507620e-15 1.817603016529218344e-14 0.000000000000000000e+00 -6.911486178289220426e-14 -3.806666533934791476e-13 2.879851295642174005e-15 -2.589053619077908252e-16 3.576681398516559015e-15 0.000000000000000000e+00 4.503664377698568024e-15 4.265014711741052499e-15 0.000000000000000000e+00 9.076109324638908388e-15 1.558037446524058953e-14 0.000000000000000000e+00 5.613258769055748730e-14 2.828766538666877692e-13 2.879851295642174005e-15 -2.589053619077908252e-16 3.576681398516559015e-15 0.000000000000000000e+00 0.000000000000000000e+00 0.000000000000000000e+00 0.000000000000000000e+00 5.931580742430660213e-15 1.439197447228365315e-14 0.000000000000000000e+00 3.681685708044654477e-14 2.078863956222493772e-13 2.879851295642174005e-15 -2.589053619077908252e-16 3.576681398516559015e-15 0.000000000000000000e+00 0.000000000000000000e+00 0.000000000000000000e+00 0.000000000000000000e+00 8.840386419037113143e-15 1.515848080901603091e-14 0.000000000000000000e+00 1.077982492495833553e-14 6.443601065691571467e-14 -4.079596715710185999e-03 -5.691254152406051946e-03 8.601330068856489000e-03 -8.394427988138100302e-03 -2.297247119637467819e-02 7.463784656941641928e-03 -1.574179676212294696e-02 -2.512514552972762438e-02 -1.178329097773295198e-02 6.186439876046961189e-02 1.499665186349254054e+00 1.935848732179982767e-01 0.000000000000000000e+00 0.000000000000000000e+00 0.000000000000000000e+00 2.419796491900830793e-15 -4.650200748829554032e-15 0.000000000000000000e+00 1.075798309745578707e-15 -3.668855004561376312e-15 0.000000000000000000e+00 2.267815016966185269e-15 -1.140194254696348621e-15 -7.933519036548473174e-16 0.000000000000000000e+00 0.000000000000000000e+00 0.000000000000000000e+00 0.000000000000000000e+00 -1.667091373821042039e-15 -4.675940751054201245e-15 0.000000000000000000e+00 1.620696020343644193e-15 6.417997726978008447e-17 2.267815016966185269e-15 -1.140194254696348621e-15 -7.933519036548473174e-16 0.000000000000000000e+00 -1.372119085097796729e-15 -4.225150126318328974e-15 0.000000000000000000e+00 -2.131961914733392808e-16 -8.017337232976368190e-17 0.000000000000000000e+00 2.237808065959210215e-15 6.725666660015036575e-15 2.267815016966185269e-15 -1.140194254696348621e-15 -7.933519036548473174e-16 0.000000000000000000e+00 0.000000000000000000e+00 0.000000000000000000e+00 0.000000000000000000e+00 -2.991459625030798282e-15 -3.443360112533532688e-16 0.000000000000000000e+00 1.530777634503587413e-15 2.165779329977860997e-15 2.267815016966185269e-15 -1.140194254696348621e-15 -7.933519036548473174e-16 0.000000000000000000e+00 0.000000000000000000e+00 0.000000000000000000e+00 0.000000000000000000e+00 -4.452932678352879603e-15 3.460722209645033451e-15 0.000000000000000000e+00 -3.298134734704002967e-15 6.068486637931714722e-15
1.500098372024554578e+02 -3.664437728422185271e-05 2.758787892130465033e-02 7.845727160513838588e-03 -3.410749854082864574e-05 2.084326203729738522e-02 3.157981361778208762e-02 -2.282403007073116608e-02 8.518065996562584896e-02 -1.222099956914736094e-02 1.640137443336572506e-02 -8.559000886396021801e-02 -3.166081633221593059e-03 2.984064600234189422e-03 7.123814718737042119e-03 -2.792198700166978464e-01 -2.783034284779609385e-04 -5.732682209432903297e-01 -8.539230935324687577e-02 -4.555108077099703778e-03 4.277478303151618921e-01 2.507632971232175850e-02 -2.006963990552953700e-02 3.760930603791166199e-02 4.889464350359912226e-02 -1.180432322874368049e-02 -7.713519691743475626e-02 1.003590359931423939e-02 -4.225423389485222572e-03 -1.744279615964362123e-02 1.642016888636164268e-02 -5.935200161209097137e-03 -2.786596180567409847e-02 -3.420091717936375383e-03 1.017842021770558368e-03 4.877459670935493583e-03 -3.470364999122473211e-03 1.062605593340121063e-03 5.003695115619983050e-03 -5.696488826227098096e-02 2.709513910627904879e-02 8.569373842460975554e-02 1.698292510103914304e-04 1.622991218765728813e-02 -6.972283365552206687e-03 1.347121317127799797e-02 -2.814270442310568606e-04 -2.195317057246632883e-02 1.589980457918230561e-01 -6.627261685620092213e-02 1.693809475411861276e-01 -1.116288876708503852e-01 8.591467590261603338e-02 -1.079053199410749675e-01 0.000000000000000000e+00 0.000000000000000000e+00 0.000000000000000000e+00 -1.075877188773297779e-14 9.106763717136340855e-15 0.000000000000000000e+00 -1.022863882595184342e-14 1.145367674279894177e-14 0.000000000000000000e+00 -6.514242396560320609e-16 1.006640668470440713e-15 5.523105586160606809e-15 0.000000000000000000e+00 0.000000000000000000e+00 0.000000000000000000e+00 0.000000000000000000e+00 9.178525513874781123e-15 6.582967553272424795e-15 0.000000000000000000e+00 -5.654930563203325098e-14 -3.087531292947487092e-13 -6.514242396560320609e-16 1.006640668470440713e-15 5.523105586160606809e-15 0.000000000000000000e+00 1.472964878423705166e-14 8.549564275089964113e-15 0.000000000000000000e+00 -4.097228552644064523e-15 4.316188788159292329e-15 0.000000000000000000e+00 9.670635083607204653e-14 5.588897741466532634e-13 -6.514242396560320609e-16 1.006640668470440713e-15 5.523105586160606809e-15 0.000000000000000000e+00 0.000000000000000000e+00 0.000000000000000000e+00 0.000000000000000000e+00 -3.674777571619407362e-15 1.064661605664100123e-14 0.000000000000000000e+00 4.064461877770486519e-14 1.787469245135143141e-13 -6.514242396560320609e-16 1.006640668470440713e-15 5.523105586160606809e-15 0.000000000000000000e+00 0.000000000000000000e+00 0.000000000000000000e+00 0.000000000000000000e+00 1.363612543725859101e-14 1.422427205032113021e-14 0.000000000000000000e+00 1.217933794465781895e-14 9.784235862320653424e-14 5.352466146343973566e-03 4.913257548065705534e-03 -1.974541910730397837e-02 -2.565360482491781460e-02 -1.531969395183835868e-02 5.291478299184215056e-02 -8.555236942289569380e-02 1.061024551158932100e-01 -9.439959906255521171e-02 2.745521155660964052e-02 5.409499109198248057e-01 5.971074335391200749e-02 0.000000000000000000e+00 0.000000000000000000e+00 0.000000000000000000e+00 -7.532621792682225084e-15 -6.611950619400256244e-15 0.000000000000000000e+00 3.385672125376141760e-16 -4.845300872073201308e-15 0.000000000000000000e+00 -4.538112518831554843e-16 -1.911596540452582491e-15 -1.320141059656475922e-15 0.000000000000000000e+00 0.000000000000000000e+00 0.000000000000000000e+00 0.000000000000000000e+00 -5.927627573540119104e-15 8.101876630990652744e-15 0.000000000000000000e+00 -3.044006205639549088e-15 2.534636197047791795e-15 -4.538112518831554843e-16 -1.911596540452582491e-15 -1.320141059656475922e-15 0.000000000000000000e+00 -2.524474533404460336e-15 -1.601878677968968589e-16 0.000000000000000000e+00 -4.251342954280335245e-15 6.947926092024458464e-15 0.000000000000000000e+00 2.726699772246981990e-16 1.016204384019025969e-14 -4.538112518831554843e-16 -1.911596540452582491e-15 -1.320141059656475922e-15 0.000000000000000000e+00 0.000000000000000000e+00 0.000000000000000000e+00 0.000000000000000000e+00 -5.157445127860049437e-15 9.013339586157129497e-15 0.000000000000000000e+00 3.315000604930028350e-15 6.221860019912547362e-15 -4.538112518831554843e-16 -1.911596540452582491e-15 -1.320141059656475922e-15 0.000000000000000000e+00 0.000000000000000000e+00 0.000000000000000000e+00 0.000000000000000000e+00 -3.836881601615880439e-15 1.298550324766089675e-14 0.000000000000000000e+00 -4.610200921194432127e-15 1.827754500187739022e-14
